# xmcd CD database file
#
# Track frame offsets:
#	150
#	13438
#	26456
#	39631
#	52521
#	66111
#	79092
#	90011
#	105327
#	119673
#	131162
#	145491
#	157606
#	171106
#	181427
#	195707
#	206871
#	217295
#
# Disc length: 3072 seconds
#
# Revision: 0
# Processed by: cddbd v1.5.1PL0 Copyright (c) Steve Scherf et al.
# Submitted via: CDex 1.50beta9
#
DISCID=fa0bfe12
DTITLE=Anita O'Day - Bolero at the Savoy - CD3
DYEAR=1900
DGENRE=Jazz
TTITLE0=Its Different when it happens to you
TTITLE1=Malaguena
TTITLE2=I told ya i love you, now get out
TTITLE3=How hight the Moon
TTITLE4=I aint getting any younger
TTITLE5=key largo
TTITLE6=Jamaica Moon
TTITLE7=Dont Kick it Around
TTITLE8=So much of Nothing to do
TTITLE9=Poor simple Simon
TTITLE10=Blues for Bojangles
TTITLE11=You Eyes are bigger than your Heart
TTITLE12=Tennessee Waltz
TTITLE13=Yeah Bo
TTITLE14=Something I Dreamed Last Night
TTITLE15=If I Could Steal you from Somebody else
TTITLE16=You took Advantage of me
TTITLE17=Once There Lived a Fool
EXTD=
EXTT0=
EXTT1=
EXTT2=
EXTT3=
EXTT4=
EXTT5=
EXTT6=
EXTT7=
EXTT8=
EXTT9=
EXTT10=
EXTT11=
EXTT12=
EXTT13=
EXTT14=
EXTT15=
EXTT16=
EXTT17=
PLAYORDER=
